<svg version="1.1" id="Layer_1" xmlns="http://www.w3.org/2000/svg" xmlns:xlink="http://www.w3.org/1999/xlink" x="0px" y="0px"
	 width="100%" viewBox="0 0 496 496" enable-background="new 0 0 496 496" xml:space="preserve">
<path fill="#000000" opacity="1.000000" stroke="none" 
	d="
M169.402466,311.351562 
	C177.092285,308.101990 182.759689,302.649567 188.839172,297.729004 
	C197.140518,291.010101 205.750793,284.697083 216.238342,281.697296 
	C217.719360,281.273712 218.412064,280.417511 219.031296,279.165070 
	C220.438538,276.318817 222.725342,274.343475 225.837494,273.783661 
	C228.717285,273.265625 230.107285,271.572388 230.979874,269.011871 
	C232.536835,264.443207 234.131836,259.884460 235.860138,255.378799 
	C236.518402,253.662720 236.733398,251.279327 240.412964,251.495285 
	C239.491165,261.068726 235.222656,269.873413 234.366013,279.231659 
	C235.855865,280.095398 236.657639,278.964539 236.877960,278.275574 
	C238.513077,273.162384 242.520721,269.533691 244.991302,264.896851 
	C257.072662,242.222107 273.844727,223.430298 294.026337,207.636063 
	C295.715271,206.314331 297.667450,205.273209 299.615509,204.351562 
	C302.491760,202.990753 305.718292,201.468674 308.619751,203.517685 
	C311.692291,205.687485 311.576111,209.335083 310.930969,212.687881 
	C309.643768,219.377228 308.400482,226.089569 306.720734,232.685867 
	C303.190247,246.549881 299.377075,260.341797 295.717102,274.173126 
	C295.304901,275.730865 294.574677,277.309875 295.630127,279.831482 
	C301.567657,278.433411 307.635162,277.066132 313.665924,275.552612 
	C315.893250,274.993622 315.796356,272.732635 316.273926,271.058777 
	C322.574158,248.977615 329.201660,226.998123 336.574921,205.248947 
	C337.267181,203.206940 337.237885,200.479767 341.545654,200.141663 
	C339.571198,213.161987 334.411499,224.823807 331.041656,236.931915 
	C327.625214,249.207397 323.704071,261.342407 319.650360,274.704620 
	C339.091949,270.976593 357.461670,268.467285 376.077942,267.700256 
	C374.562164,270.345428 372.022430,270.070587 369.752686,270.305817 
	C353.861115,271.952698 338.132721,274.686005 322.375061,277.243927 
	C318.728851,277.835815 318.084503,280.489563 317.342041,283.228271 
	C314.773804,292.701447 312.281830,302.195435 309.679810,311.659210 
	C309.234314,313.279449 309.256592,316.050964 306.722870,315.397522 
	C304.218872,314.751678 305.517548,312.208466 305.901215,310.651276 
	C307.969299,302.257111 310.300018,293.927917 312.411316,285.543915 
	C312.843353,283.828400 313.875702,282.140015 313.053864,279.574463 
	C306.590363,279.814026 300.264923,281.362030 294.056763,283.397766 
	C292.260742,283.986694 292.304688,286.102966 291.811127,287.646149 
	C289.226379,295.728333 286.749847,303.845581 284.104065,311.907440 
	C283.412292,314.015350 282.809631,316.657379 278.940155,315.647552 
	C278.705383,305.635559 283.613678,296.553619 284.884094,286.532043 
	C278.869110,285.614471 274.165680,290.312439 267.650024,289.952789 
	C270.803101,285.896942 274.867554,285.030731 278.523834,284.339020 
	C284.671631,283.175903 287.465546,279.875763 289.619385,274.018219 
	C296.302338,255.843155 300.736664,237.095657 305.127899,218.323395 
	C306.001678,214.588028 307.765106,209.263199 304.449280,207.107010 
	C301.031830,204.884720 297.744202,209.463211 294.895660,211.767578 
	C277.508575,225.833008 263.049438,242.486923 251.446945,261.610962 
	C249.276306,265.188721 247.505768,268.938812 246.634796,273.753204 
	C248.251724,272.596405 249.004791,270.046875 250.945297,271.100616 
	C253.880463,272.694458 250.693054,275.377869 251.856552,277.689575 
	C254.946991,277.383698 255.921371,273.010101 259.116058,273.038696 
	C260.632385,275.379639 257.626587,276.109619 258.191803,277.943726 
	C263.255646,278.527527 267.361084,274.704346 272.383484,274.934387 
	C265.687927,280.069031 258.232605,283.171509 249.686951,282.797089 
	C247.475708,282.700226 245.612671,282.422668 243.569839,283.744141 
	C240.639114,285.639954 232.235962,284.079773 229.476974,281.403931 
	C226.223999,284.279724 223.882706,289.511261 217.945923,285.988892 
	C217.319046,285.616913 215.538025,286.820709 214.496185,287.574890 
	C204.364471,294.909241 193.684769,301.376587 183.031174,307.908020 
	C176.986710,311.613678 173.183685,317.747925 168.589859,322.998474 
	C167.263550,324.514404 166.491135,327.011444 163.291962,326.086121 
	C163.248779,321.730469 167.873489,319.879364 168.855164,315.813080 
	C160.915573,318.893341 153.537125,322.801331 145.376968,324.483948 
	C141.203506,325.344513 136.210358,327.267456 133.426605,322.861938 
	C130.423615,318.109467 134.556839,314.353851 137.518967,311.125397 
	C146.966202,300.828827 158.595261,293.323242 170.429672,286.124084 
	C170.988953,285.783844 171.548508,285.444031 172.865005,284.643951 
	C167.318604,283.773560 162.426270,284.550690 157.643997,283.558441 
	C146.798920,281.308228 143.450287,274.372375 149.600891,265.063599 
	C156.483887,254.646362 165.984192,246.690765 176.095764,239.557663 
	C186.643448,232.116913 198.093765,226.399521 210.626068,223.056747 
	C217.836899,221.133377 225.127777,220.954544 232.338318,222.945038 
	C234.521484,223.547714 237.402924,224.010773 237.215332,227.316528 
	C236.241425,228.439514 235.197647,228.384415 234.310562,227.897156 
	C224.280823,222.388138 214.329880,224.377289 204.444458,228.235764 
	C185.438080,235.654358 169.379715,247.272064 156.231079,262.819550 
	C153.163559,266.446716 149.523788,270.653564 152.032852,275.815063 
	C154.377716,280.638763 159.589111,280.662964 164.290756,280.866302 
	C173.192429,281.251312 181.871231,280.654388 190.023132,276.341034 
	C193.065338,274.731354 196.464401,272.970154 200.509918,274.408997 
	C200.103806,278.097656 197.274277,278.483856 195.115097,279.100891 
	C176.397247,284.449799 161.074097,295.482910 146.467743,307.778625 
	C144.026993,309.833282 141.787994,312.045959 139.961441,314.650085 
	C138.659637,316.506012 136.308731,318.416107 137.779968,320.804504 
	C139.406616,323.445160 142.359344,322.202667 144.684250,321.636658 
	C153.324585,319.533051 161.232285,315.588867 169.402466,311.351562 
M224.624847,281.745209 
	C225.295929,280.289276 226.981888,279.136261 226.157166,276.877289 
	C223.560532,277.736328 222.709686,279.659790 222.530518,281.749969 
	C222.389282,283.397614 223.417816,283.025757 224.624847,281.745209 
z"/>
<path fill="#000000" opacity="1.000000" stroke="none" 
	d="
M338.605103,259.638855 
	C340.004547,257.712372 340.617493,255.198669 343.529297,255.965607 
	C345.121094,257.655060 343.629700,259.943207 344.902100,261.925262 
	C348.194153,261.131500 349.540466,258.553101 350.428558,255.676025 
	C352.536316,248.847565 354.549622,241.989868 356.585815,235.139435 
	C357.092438,233.434967 357.217987,231.457886 360.440521,231.124146 
	C360.607758,237.445999 357.437073,242.948242 356.835693,248.860428 
	C362.807831,253.053619 363.632294,256.612671 359.945648,262.321228 
	C359.019073,263.756012 357.712860,265.571167 356.176086,265.265076 
	C350.839203,264.202271 345.818085,267.554260 340.568085,266.097168 
	C338.373444,265.488037 337.708160,267.349121 336.481781,268.292419 
	C335.001434,269.431091 333.491272,270.742401 331.557892,269.757233 
	C329.644196,268.782074 329.531250,266.767914 329.809418,264.923889 
	C330.130005,262.798645 330.677460,260.697449 331.272705,258.627899 
	C331.594208,257.510071 332.185516,256.303833 333.713409,256.782806 
	C335.167206,257.238525 335.058899,258.459534 334.820404,259.673157 
	C334.502289,261.292175 334.222656,262.918762 333.782379,265.331940 
	C336.196442,263.677734 337.277039,261.773590 338.605103,259.638855 
M355.851959,255.016144 
	C354.424194,256.890991 352.499420,258.643555 354.086182,261.453278 
	C358.079834,258.871857 358.653168,256.960663 355.851959,255.016144 
z"/>
<path fill="#000000" opacity="1.000000" stroke="none" 
	d="
M386.314148,257.232727 
	C383.211945,256.495392 382.983978,254.596466 384.332611,252.737228 
	C385.453064,251.192459 387.489197,251.276138 388.554413,252.841873 
	C389.928131,254.861069 389.307434,256.596527 386.314148,257.232727 
z"/>
</svg>